<svg xmlns="http://www.w3.org/2000/svg" viewBox="0 0 24 24"><symbol xmlns="http://www.w3.org/2000/svg" viewBox="0 0 24 24" id="032dadc9-db89-4bec-a0ea-140a5a3ea19a"><path d="M13.38 13.38a3.44 3.44 0 1 0 3.47 3.43 3.45 3.45 0 0 0-3.47-3.43zm0 5.5a2.07 2.07 0 1 1 2.08-2.07 2.07 2.07 0 0 1-2.08 2.07z"></path><path d="M18.92 12H18l-.81-1.61a2.08 2.08 0 0 0-1.05-1l.61-2.93h.13a1.38 1.38 0 0 0 1.38-1.38v-2.7A1.38 1.38 0 0 0 16.85 1H9.92a1.38 1.38 0 0 0-1.38 1.38v2.74A1.38 1.38 0 0 0 9.92 6.5h.13l.61 2.93a2.08 2.08 0 0 0-1.05 1L8.8 12H7.15v-.69a.69.69 0 1 0-1.38 0V12h-.69A2.07 2.07 0 0 0 3 14.06v6.88A2.07 2.07 0 0 0 5.08 23h13.84A2.07 2.07 0 0 0 21 20.94v-6.88A2.07 2.07 0 0 0 18.92 12zm-9-9.62zm.69 2.74h-.69V2.38h6.93v2.74h-6.24zM15.3 6.5l-.57 2.75H12l-.54-2.75zm4.32 14.44a.69.69 0 0 1-.7.68H5.08a.68.68 0 0 1-.69-.68v-6.88a.68.68 0 0 1 .69-.68h4.15a.7.7 0 0 0 .62-.38l1-2a.71.71 0 0 1 .62-.38h3.83a.71.71 0 0 1 .62.38l1 2a.7.7 0 0 0 .62.39h1.38a.69.69 0 0 1 .7.68z"></path></symbol><use href="#032dadc9-db89-4bec-a0ea-140a5a3ea19a"></use></svg>