<svg xmlns="http://www.w3.org/2000/svg" viewBox="0 0 24 24"><symbol xmlns="http://www.w3.org/2000/svg" viewBox="0 0 24 24" id="dec25e7f-19fc-4fe0-ba17-788e198b810a"><path d="M4.79 3v16.22h17.4c.44 0 .81.36.81.81 0 .45-.37.81-.82.81h-1.92l.02.27a1.9 1.9 0 0 1-1.9 1.89 1.9 1.9 0 0 1-1.89-2.16H9.66l.02.27A1.9 1.9 0 0 1 7.78 23a1.9 1.9 0 0 1-1.89-2.16H3.15V4.62H1.82A.81.81 0 0 1 1 3.8c0-.45.37-.81.82-.81h2.97zm15.5 1.1c.6 0 1.08.49 1.08 1.09v12.95H5.87V5.2c0-.6.49-1.08 1.1-1.08zm-9.93 1.63H7.5v10.8h12.24V5.72h-2.86v4.86L13.64 9.5l-3.28 1.09V5.73zm4.9 0h-3.27v2.7l1.65-.54 1.61.54v-2.7z"></path></symbol><use href="#dec25e7f-19fc-4fe0-ba17-788e198b810a"></use></svg>