<svg xmlns="http://www.w3.org/2000/svg" viewBox="0 0 24 24"><symbol xmlns="http://www.w3.org/2000/svg" viewBox="0 0 24 24" id="1c516df5-bc8f-4425-a5de-ff3165deb6a3"><path d="M6 15.5a6.5 6.5 0 1 0 12.98 0A6.5 6.5 0 0 0 6 15.5zm6.5-5.59a5.6 5.6 0 1 1 0 11.2 5.6 5.6 0 0 1 0-11.2zm.47-2.28V3.44c0-.24-.22-.44-.48-.44s-.47.2-.47.44v4.19c0 .24.2.44.47.44.26 0 .48-.2.48-.44zm3.48 0V5.65c0-.24-.21-.43-.47-.43s-.48.2-.48.43v1.98c0 .24.21.44.47.44s.48-.2.48-.44zm-6.97 0V5.65c0-.24-.2-.43-.47-.43-.26 0-.48.2-.48.43v1.98c0 .24.22.44.48.44s.47-.2.47-.44zm2.89 10.4a.43.43 0 0 0-.15 0c-.51-.07-.9-.51-.9-1.04 0-.25-.2-.45-.44-.45-.25 0-.45.2-.45.45 0 .88.58 1.65 1.4 1.88v.46c0 .25.2.45.45.45.24 0 .44-.2.44-.45v-.43c.96-.2 1.6-1.11 1.5-2.1-.1-1-.91-1.75-1.89-1.75-.55 0-1-.47-1-1.04 0-.57.45-1.03 1-1.03s1.01.46 1.01 1.03c0 .25.2.46.45.46.24 0 .44-.2.44-.46 0-.92-.63-1.71-1.5-1.9v-.42c0-.25-.2-.46-.45-.46s-.45.2-.45.46v.44a1.95 1.95 0 0 0-1.38 2.14c.13.97.93 1.69 1.88 1.69.55 0 1 .45 1.01 1.01.01.57-.42 1.04-.97 1.06z"></path></symbol><use href="#1c516df5-bc8f-4425-a5de-ff3165deb6a3"></use></svg>