<svg xmlns="http://www.w3.org/2000/svg" viewBox="0 0 24 24"><symbol xmlns="http://www.w3.org/2000/svg" viewBox="0 0 24 24" id="bedf00bc-c5c6-4b1b-a2be-a767c702ebce"><path d="m21.32 9.78-1.7-3.9A3.14 3.14 0 0 0 16.73 4H7.27a3.14 3.14 0 0 0-2.89 1.87l-1.7 3.91A3.08 3.08 0 0 0 1 12.5v1.54c0 1.15.64 2.13 1.57 2.67v2.74c0 .86.7 1.55 1.57 1.55H7.3c.86 0 1.57-.7 1.57-1.54v-2.32h6.28v2.31c0 .86.7 1.55 1.57 1.55h3.15c.86 0 1.57-.7 1.57-1.54V16.7A3.07 3.07 0 0 0 23 14.05V12.5c0-1.18-.68-2.2-1.68-2.72zm-15.5-3.3a1.57 1.57 0 0 1 1.45-.94h9.46c.63 0 1.2.37 1.45.94l1.27 2.93H4.55l1.28-2.93zM7.3 19.45H4.14v-2.31H7.3v2.31zm12.57-2.31v2.31H16.7v-2.31h3.15zm1.57-3.1c0 .86-.7 1.55-1.57 1.55H4.14c-.86 0-1.57-.7-1.57-1.55V12.5c0-.85.7-1.54 1.57-1.54h15.72c.86 0 1.57.69 1.57 1.54v1.54zm-14.14-.77c0-.85-.7-1.54-1.58-1.54-.86 0-1.57.69-1.57 1.54 0 .86.7 1.55 1.57 1.55s1.58-.7 1.58-1.55zm12.57 0c0-.85-.7-1.54-1.57-1.54s-1.58.69-1.58 1.54c0 .86.7 1.55 1.58 1.55.86 0 1.57-.7 1.57-1.55zm-4.72 0a.78.78 0 0 0-.78-.77H9.64a.78.78 0 0 0-.78.77.78.78 0 0 0 .78.78h4.72a.78.78 0 0 0 .78-.78z"></path></symbol><use href="#bedf00bc-c5c6-4b1b-a2be-a767c702ebce"></use></svg>